<?xml version="1.0" encoding="UTF-8" standalone="no"?>
<!-- Created with Inkscape (http://www.inkscape.org/) -->

<svg
   width="25mm"
   height="25mm"
   viewBox="0 0 25 25"
   version="1.1"
   id="svg1"
   xml:space="preserve"
   xmlns="http://www.w3.org/2000/svg"
   xmlns:svg="http://www.w3.org/2000/svg"><defs
     id="defs1"><filter
       style="color-interpolation-filters:sRGB"
       id="filter167"
       x="-0.67602381"
       y="-0.26492646"
       width="2.8897938"
       height="1.6101337"><feFlood
         result="flood"
         in="SourceGraphic"
         flood-opacity="0.560784"
         flood-color="rgb(48,29,0)"
         id="feFlood166" /><feGaussianBlur
         result="blur"
         in="SourceGraphic"
         stdDeviation="1.100000"
         id="feGaussianBlur166" /><feOffset
         result="offset"
         in="blur"
         dx="2.100000"
         dy="0.800000"
         id="feOffset166" /><feComposite
         result="comp1"
         operator="in"
         in="flood"
         in2="offset"
         id="feComposite166" /><feComposite
         result="comp2"
         operator="over"
         in="SourceGraphic"
         in2="comp1"
         id="feComposite167" /></filter></defs><path
     id="path1"
     style="fill:#0972ca;fill-opacity:1;strokeWidth:0.840882;filter:url(#filter167)"
     d="m 0.34638627,4.9617398 c -0.418752,0.0552 -0.304891,0.84886 -0.304891,1.85312 v 0.99012 c 0,0.73438 0.837735,1.3255 1.87792203,1.3255 h 0.644405 c 0.844932,0 1.556403,-0.39011 1.793689,-0.93018 h 3.654557 V 14.42266 20.783 h 2.2933997 2.293917 V 14.42266 6.9388798 c -3.4e-5,-0.79968 -0.648295,-1.97711 -1.447974,-1.97714 -3.8113857,-0.033 -5.4859417,0.002 -10.80502473,0 z"
     transform="matrix(-1,0,0,1,25.044723,0)" /><path
     style="fill:#ffeb00;fill-opacity:1;strokeWidth:0.789797;filter:url(#filter167)"
     d="m 12.729414,5.5069682 c -0.309681,0 -0.558622,0.0577 -0.558622,0.12926 v 9.7065098 c 0,0.0716 0.248941,0.12926 0.558622,0.12926 h 2.787427 c 0.309682,0 0.559139,-0.0577 0.559139,-0.12926 V 5.6362282 c 0,-0.0716 -0.249457,-0.12926 -0.559139,-0.12926 z"
     id="path22-1"
     transform="matrix(1,0,0,1.2032095,-2.1246623,-1.6425948)" /><path
     id="path20-7"
     style="fill:#0997ca;fill-opacity:1;strokeWidth:0.840882;filter:url(#filter167)"
     d="m 0.30574795,4.9617398 c -0.418752,0.0552 -0.30489100139,0.84886 -0.30489100139,1.85312 v 0.99012 c 0,0.73438 1.50826735139,1.3255 1.87792205139,1.3255 h 0.644405 c -0.049111,0 0.9242191,-0.6199951 1.793689,-0.7002949 L 7.97143,8.8612194 V 14.42266 20.783 h 2.2934 2.293917 V 14.42266 6.9388798 c -3.4e-5,-0.79968 -0.648295,-1.97711 -1.447974,-1.97714 -3.811386,-0.033 -5.485942,0.002 -10.80502505,0 z" /><path
     id="path24-3"
     style="fill:#a13f75;fill-opacity:1;filter:url(#filter167)"
     d="m 40.377078,9.6153541 c -5.41083,0 -8.3473,3.6628299 -8.3473,8.2124199 0,4.54957 2.93622,8.2119 6.58358,8.2119 h 3.52692 c 3.64735,0 6.58358,-3.66233 6.58358,-8.2119 0,-4.54959 -2.93598,-8.2124199 -8.34678,-8.2124199 z m -5.2e-4,3.1755099 c 2.83619,0 5.11959,2.24651 5.11959,5.03691 0,2.79039 -2.2834,5.0369 -5.11959,5.0369 -2.83618,0 -5.11907,-2.24651 -5.11907,-5.0369 0,-2.7904 2.28289,-5.03691 5.11907,-5.03691 z"
     transform="matrix(0.48528659,0,0,0.48264352,-0.04898463,2.0218694)" /><path
     style="fill:#752263;fill-opacity:1;filter:url(#filter167)"
     d="m 31.324345,3.64512 0.0039,2.2680875 1.888325,0.9540625 v 11.90574 h 2.96571 v -5.12062 -2.90525 c 0,0 0.288047,-4.68198 3.836458,-4.64468 3.548405,0.0373 3.836455,3.85351 3.836455,3.85351 v 3.69642 5.12062 h 1.984378 1.98437 l -0.006,-5.75469 -0.006,-5.75469 C 47.723059,0.24022 36.823911,9.42361 34.279943,5.27977 l -0.620296,-1.0103934 -0.999098,-0.21287 z"
     id="path23-3"
     transform="matrix(0.48528659,0,0,0.48264352,-15.1958,5.541055)" /></svg>
